<?xml version="1.0" standalone="no"?>
<!DOCTYPE svg PUBLIC "-//W3C//DTD SVG 20010904//EN"
 "http://www.w3.org/TR/2001/REC-SVG-20010904/DTD/svg10.dtd">
<svg version="1.0" xmlns="http://www.w3.org/2000/svg"
 width="994.000000pt" height="994.000000pt" viewBox="0 0 994.000000 994.000000"
 preserveAspectRatio="xMidYMid meet">
<metadata>
Created by potrace 1.11, written by Peter Selinger 2001-2013
</metadata>
<g transform="translate(0.000000,994.000000) scale(0.100000,-0.100000)"
fill="#000000" stroke="none">
<path d="M2587 9464 c-1 -1 -29 -6 -62 -9 -128 -14 -228 -32 -345 -60 -7 -2
-84 -19 -90 -20 -18 -3 -198 -67 -250 -88 -14 -6 -31 -11 -37 -13 -57 -11
-384 -191 -489 -269 -23 -16 -54 -39 -70 -50 -118 -85 -384 -331 -384 -355 0
-6 -3 -10 -7 -10 -10 0 -123 -141 -192 -237 -28 -40 -48 -73 -44 -73 4 0 -2
-7 -13 -15 -10 -8 -14 -15 -9 -15 6 0 6 -3 0 -8 -11 -7 -71 -109 -117 -197
-25 -48 -116 -260 -123 -285 0 -3 -10 -34 -22 -70 -47 -144 -73 -245 -63 -245
2 0 -1 -9 -7 -20 -6 -11 -14 -42 -17 -69 -4 -27 -9 -52 -11 -55 -1 -3 -6 -35
-10 -71 -4 -36 -9 -74 -11 -85 -2 -11 -6 -78 -9 -150 -3 -71 -5 -132 -6 -135
-1 -3 -1 -9 0 -13 1 -5 4 -70 6 -145 3 -76 7 -146 9 -158 2 -11 7 -58 11 -105
4 -46 9 -93 11 -104 9 -41 18 -101 18 -122 1 -13 3 -23 6 -23 3 0 7 -15 8 -32
2 -18 8 -51 14 -73 6 -22 12 -49 13 -60 1 -11 4 -21 5 -22 1 -2 3 -6 4 -10 1
-5 6 -26 11 -48 5 -22 9 -42 10 -45 11 -48 94 -296 115 -345 5 -11 21 -49 36
-85 31 -76 134 -293 143 -300 3 -3 13 -19 22 -35 34 -66 64 -120 70 -125 3 -3
13 -19 22 -36 17 -33 96 -155 106 -164 3 -3 24 -32 46 -64 22 -33 59 -85 82
-115 23 -31 46 -61 50 -66 5 -6 28 -35 53 -65 25 -30 52 -63 60 -73 37 -46 55
-66 113 -132 172 -192 547 -567 697 -695 14 -12 58 -51 98 -88 92 -84 113
-103 197 -177 38 -33 79 -69 91 -80 36 -33 83 -74 209 -185 66 -58 122 -107
125 -110 3 -3 59 -53 125 -110 66 -58 135 -118 154 -135 19 -16 58 -53 88 -82
29 -28 53 -50 53 -48 0 2 15 -11 33 -28 19 -18 75 -70 127 -117 156 -143 474
-452 541 -526 15 -16 35 -36 45 -45 11 -9 51 -51 89 -93 39 -43 90 -99 115
-124 25 -26 72 -79 104 -117 33 -39 69 -80 80 -91 12 -12 28 -30 36 -40 38
-48 105 -129 111 -134 3 -3 42 -52 87 -110 45 -58 88 -112 96 -120 7 -8 59
-78 115 -155 56 -77 105 -144 109 -150 4 -5 48 -66 97 -135 48 -69 90 -127 93
-130 2 -3 10 4 18 15 8 11 20 27 27 35 35 44 77 110 77 120 0 6 5 8 10 5 6 -3
10 -1 10 5 0 13 110 173 122 178 4 2 8 8 8 14 0 19 362 497 435 574 5 6 30 35
55 64 25 29 54 63 65 76 11 12 40 45 64 74 47 54 54 61 226 245 185 198 432
441 664 655 57 52 122 113 146 135 38 36 152 139 210 190 12 11 53 48 91 82
38 34 80 72 94 83 14 12 54 48 90 80 36 32 76 68 90 80 14 12 54 48 90 80 36
32 76 68 90 80 32 28 175 156 216 195 17 17 69 64 115 105 45 41 112 103 147
138 36 34 66 62 68 62 1 0 76 73 166 163 216 216 391 408 513 562 22 28 42 52
45 55 56 56 260 350 353 510 103 177 259 503 253 531 0 3 5 13 12 21 7 9 15
27 18 39 7 34 7 33 47 159 36 113 85 312 93 380 2 19 9 58 14 85 5 28 12 73
14 100 3 28 8 84 13 125 10 96 10 464 1 555 -9 83 -18 138 -44 273 -2 12 -6
32 -8 45 -2 12 -9 42 -16 67 -7 25 -14 52 -15 60 -2 8 -20 62 -40 120 -20 58
-37 110 -38 115 -2 6 -7 17 -12 25 -5 8 -10 20 -11 27 -6 39 -187 384 -206
391 -4 2 -6 8 -2 13 3 5 1 9 -4 9 -5 0 -17 16 -28 35 -10 19 -22 35 -26 35 -5
0 -8 5 -8 10 0 11 -76 113 -150 201 -88 105 -256 266 -373 359 -11 8 -24 20
-31 25 -6 6 -34 26 -61 45 -28 19 -51 38 -53 42 -2 4 -7 8 -12 8 -4 0 -50 26
-101 58 -52 33 -109 65 -126 73 -18 8 -33 17 -33 21 0 5 -4 8 -9 8 -5 0 -49
19 -98 41 -48 23 -94 42 -100 42 -7 0 -13 3 -13 7 0 4 -6 7 -12 7 -7 1 -49 15
-93 32 -44 17 -89 33 -100 36 -11 2 -62 16 -114 30 -96 26 -121 31 -181 41
-19 3 -41 7 -48 9 -7 3 -40 7 -75 11 -34 3 -84 10 -112 14 -55 9 -481 6 -505
-3 -8 -3 -42 -8 -75 -11 -70 -7 -106 -13 -157 -27 -20 -5 -40 -9 -45 -8 -4 1
-10 0 -13 -1 -3 -1 -12 -3 -20 -5 -39 -10 -66 -16 -75 -19 -5 -2 -23 -6 -40
-10 -122 -31 -339 -113 -452 -172 -46 -24 -83 -41 -83 -38 0 3 -12 -4 -26 -15
-15 -12 -33 -21 -40 -21 -8 0 -14 -4 -14 -8 0 -5 -18 -17 -40 -27 -22 -10 -40
-22 -40 -27 0 -4 -6 -8 -14 -8 -8 0 -21 -6 -28 -13 -23 -22 -118 -87 -127 -87
-5 0 -11 -3 -13 -8 -1 -4 -25 -25 -53 -47 -27 -22 -63 -51 -80 -65 -47 -39
-265 -258 -289 -289 -176 -238 -189 -252 -200 -233 -38 64 -80 122 -87 122 -5
0 -9 5 -9 11 0 6 -6 16 -12 23 -7 7 -24 28 -38 46 -76 100 -239 263 -370 370
-30 25 -56 48 -58 53 -2 4 -8 7 -14 7 -6 0 -18 8 -27 18 -9 9 -28 23 -43 31
-15 8 -37 22 -47 33 -11 10 -23 18 -26 18 -4 0 -30 15 -58 34 -69 45 -217 126
-217 119 0 -3 -8 1 -17 9 -10 8 -36 22 -58 31 -22 8 -58 23 -80 33 -22 10 -42
18 -45 19 -3 1 -13 5 -22 8 -21 8 -45 16 -56 18 -4 1 -36 12 -72 24 -55 20
-104 34 -125 36 -2 0 -19 5 -37 10 -29 9 -85 21 -155 35 -13 2 -35 6 -50 9
-16 3 -53 8 -83 11 -30 3 -79 9 -108 13 -48 7 -438 12 -445 5z m393 -403 c0
-3 17 -6 37 -5 21 0 72 -5 113 -13 41 -7 89 -15 105 -17 17 -2 66 -14 110 -26
44 -12 87 -23 95 -25 26 -7 84 -27 102 -36 10 -5 22 -9 28 -9 19 0 248 -108
329 -156 298 -174 601 -473 764 -754 58 -100 89 -159 86 -163 -2 -2 1 -10 8
-18 16 -19 182 -347 178 -351 -7 -7 23 -26 31 -20 5 4 34 57 64 117 30 61 60
113 65 117 6 4 7 8 3 8 -7 0 114 240 136 270 6 8 20 31 30 50 50 90 227 315
306 388 158 147 186 171 294 247 39 28 99 68 133 89 59 35 256 136 267 136 2
0 26 10 53 22 26 11 53 22 58 23 6 1 13 3 18 5 4 1 12 4 17 5 6 1 12 4 15 5 3
1 8 3 13 5 4 1 14 5 22 8 15 6 122 37 144 41 6 2 29 7 51 11 22 5 49 10 60 11
11 1 20 3 20 4 0 2 35 9 80 15 22 3 60 8 85 12 54 7 416 7 480 -1 122 -14 187
-26 270 -48 86 -22 81 -20 140 -38 25 -8 48 -14 53 -16 4 -1 9 -3 12 -4 3 -1
8 -3 13 -5 14 -4 47 -17 80 -31 17 -7 34 -14 37 -13 3 0 18 -7 33 -15 15 -8
59 -29 97 -48 39 -18 73 -36 76 -41 3 -5 8 -7 10 -6 5 3 35 -15 148 -90 46
-31 91 -60 100 -66 8 -5 20 -14 27 -20 6 -5 33 -28 60 -49 50 -40 235 -223
289 -286 51 -59 125 -160 125 -170 0 -6 5 -10 10 -10 6 0 10 -6 10 -14 0 -8 3
-16 8 -18 31 -14 242 -439 242 -488 0 -5 5 -21 12 -37 6 -15 12 -32 13 -38 2
-5 9 -30 16 -55 16 -57 13 -46 27 -110 19 -91 27 -136 39 -240 9 -73 9 -416 0
-505 -17 -169 -18 -178 -53 -360 -2 -11 -11 -49 -20 -85 -9 -36 -18 -72 -19
-80 -2 -8 -4 -17 -6 -20 -1 -3 -3 -9 -4 -15 -1 -5 -4 -17 -7 -25 -27 -74 -58
-171 -58 -183 0 -8 -7 -20 -15 -27 -8 -7 -15 -19 -15 -27 0 -17 -10 -41 -84
-198 -28 -60 -54 -111 -58 -113 -5 -2 -8 -8 -8 -13 0 -8 -52 -100 -103 -184
-78 -126 -220 -327 -269 -380 -15 -16 -28 -33 -28 -37 0 -4 -10 -18 -22 -31
-13 -14 -39 -44 -60 -68 -124 -148 -211 -242 -423 -454 -161 -161 -355 -347
-429 -410 -23 -20 -221 -200 -237 -215 -9 -8 -44 -40 -78 -70 -35 -30 -73 -64
-85 -75 -13 -11 -53 -47 -91 -80 -38 -33 -73 -65 -79 -70 -6 -6 -49 -44 -96
-85 -46 -41 -94 -84 -106 -95 -11 -11 -41 -37 -65 -59 -53 -46 -208 -187 -258
-235 -20 -18 -81 -74 -136 -124 -112 -102 -617 -606 -710 -708 -65 -72 -175
-195 -203 -227 -9 -10 -33 -37 -52 -59 -19 -22 -48 -57 -65 -78 -16 -20 -37
-45 -46 -54 -8 -9 -31 -36 -49 -61 -19 -25 -39 -50 -45 -56 -21 -23 -51 -61
-80 -99 -30 -41 -43 -57 -60 -78 -6 -7 -22 -28 -35 -47 -27 -39 -38 -53 -60
-79 -8 -10 -20 -26 -26 -37 -18 -30 -37 -27 -64 11 -28 40 -30 43 -166 215
-55 69 -106 132 -114 141 -8 9 -31 35 -49 59 -19 23 -40 48 -46 54 -5 6 -39
45 -75 86 -36 41 -88 100 -116 130 -29 30 -72 77 -95 105 -65 74 -580 586
-689 685 -51 47 -121 110 -154 141 -34 31 -83 76 -110 100 -27 24 -59 53 -70
64 -12 11 -52 47 -90 80 -38 33 -86 76 -107 95 -21 19 -59 53 -84 75 -55 48
-84 73 -162 142 -32 28 -69 61 -83 73 -14 12 -49 43 -79 68 -29 26 -63 56 -76
67 -12 11 -57 52 -100 90 -43 39 -90 81 -105 95 -15 14 -58 52 -95 85 -144
129 -237 218 -428 408 -108 108 -196 197 -194 197 2 0 -19 24 -46 53 -27 28
-72 79 -99 111 -28 33 -56 65 -62 72 -7 7 -46 57 -87 111 -41 54 -84 109 -97
123 -12 14 -25 33 -28 43 -3 9 -9 17 -14 17 -5 0 -12 9 -15 20 -3 11 -12 26
-18 32 -7 7 -28 38 -47 68 -19 30 -37 57 -40 60 -3 3 -14 22 -23 42 -9 20 -21
38 -25 40 -7 3 -169 326 -193 383 -45 110 -88 231 -93 265 -1 3 -4 10 -8 16
-4 6 -9 21 -12 35 -3 13 -15 60 -26 104 -23 94 -46 203 -55 260 -3 22 -8 54
-11 70 -3 17 -7 53 -10 80 -2 28 -6 70 -9 95 -3 25 -7 90 -9 145 -2 55 -5 105
-6 110 -1 6 -2 12 -1 15 1 3 4 61 7 130 5 127 10 205 14 205 1 0 4 16 5 35 2
19 6 47 9 63 3 15 8 39 11 55 14 69 59 230 72 255 7 15 11 27 8 27 -2 0 6 25
20 55 13 30 22 55 20 55 -2 0 16 41 41 90 24 50 44 95 44 100 0 4 3 10 8 12 4
2 18 23 31 48 28 54 125 203 161 246 80 100 115 139 205 229 55 55 118 114
139 130 21 17 44 35 50 40 45 43 369 245 392 245 1 0 35 15 76 34 64 29 111
48 128 51 3 0 15 6 28 13 12 7 22 11 22 8 0 -3 26 4 57 15 32 11 66 21 78 24
11 2 40 10 65 16 25 6 56 13 70 14 14 2 25 4 25 5 0 1 11 4 25 6 14 2 39 6 55
8 17 3 55 8 85 12 30 3 56 7 58 8 5 6 372 2 372 -3z"/>
</g>
</svg>
